<svg aria-hidden="true" style="position: absolute; width: 0; height: 0; overflow: hidden;" version="1.1" xmlns="http://www.w3.org/2000/svg" xmlns:xlink="http://www.w3.org/1999/xlink">
<defs>
<symbol id="icon-blank-page" viewBox="0 0 27 32">
<path fill="#ff4181" style="fill: var(--color1, #ff4181)" d="M27.147 8.645h-18.502v23.355h18.502v-23.355z"></path>
<path fill="#ff755c" style="fill: var(--color2, #ff755c)" d="M24.265 5.763h-18.502v23.355h18.502v-23.355z"></path>
<path fill="#ff9356" style="fill: var(--color3, #ff9356)" d="M21.384 2.881h-18.502v23.355h18.502v-23.355z"></path>
<path fill="#ffce47" style="fill: var(--color4, #ffce47)" d="M18.502 23.355h-18.502v-23.355h12.891l5.611 5.611v17.744z"></path>
<path fill="#ffebb4" style="fill: var(--color5, #ffebb4)" d="M12.891 0v5.611h5.611l-5.611-5.611z"></path>
</symbol>
<symbol id="icon-cmyk" viewBox="0 0 35 32">
<path fill="#4fc2e9" style="fill: var(--color6, #4fc2e9)" d="M11.526 20.364c0-6.426 5.162-11.636 11.527-11.636s11.527 5.21 11.527 11.636c0 6.426-5.161 11.636-11.527 11.636s-11.527-5.21-11.527-11.636z"></path>
<path fill="#ec87c0" style="fill: var(--color7, #ec87c0)" d="M0 20.364c0-6.426 5.161-11.636 11.526-11.636 6.367 0 11.527 5.21 11.527 11.636s-5.161 11.636-11.527 11.636c-6.366-0-11.526-5.21-11.526-11.636z"></path>
<path fill="#5d9cec" style="fill: var(--color8, #5d9cec)" d="M17.29 10.285c-3.446 2.012-5.764 5.773-5.764 10.079s2.319 8.067 5.764 10.078c3.445-2.011 5.763-5.772 5.763-10.078s-2.319-8.067-5.763-10.079z"></path>
<path fill="#ffce54" style="fill: var(--color9, #ffce54)" d="M17.29 23.272c-6.367 0-11.527-5.21-11.527-11.635-0-6.427 5.16-11.637 11.527-11.637 6.366 0 11.526 5.21 11.526 11.637-0 6.426-5.161 11.635-11.526 11.635z"></path>
<path fill="#a0d468" style="fill: var(--color10, #a0d468)" d="M11.526 20.364c0 0.473 0.030 0.94 0.083 1.4 1.677 0.961 3.615 1.509 5.681 1.509 6.366 0 11.526-5.21 11.526-11.635 0-0.474-0.029-0.941-0.082-1.4-1.677-0.96-3.616-1.51-5.681-1.51-6.366-0-11.527 5.21-11.527 11.636z"></path>
<path fill="#ed5564" style="fill: var(--color11, #ed5564)" d="M11.526 8.727c-2.065 0-4.003 0.549-5.68 1.51-0.055 0.459-0.083 0.926-0.083 1.4 0 6.426 5.161 11.635 11.527 11.635 2.065 0 4.004-0.548 5.68-1.509 0.055-0.46 0.083-0.927 0.083-1.4 0-6.426-5.16-11.636-11.527-11.636z"></path>
<path fill="#434a54" style="fill: var(--color12, #434a54)" d="M17.617 23.268c0.087-0.002 0.173-0.006 0.26-0.011 0.010 0 0.019 0 0.030-0.002 0.078-0.004 0.155-0.009 0.233-0.015 0.021 0 0.043-0.002 0.064-0.004 0.083-0.006 0.167-0.013 0.25-0.021 0.017-0.002 0.035-0.004 0.052-0.006 0.071-0.009 0.14-0.015 0.21-0.023 0.022-0.004 0.044-0.006 0.066-0.009 0.080-0.011 0.16-0.023 0.24-0.034 0.023-0.004 0.047-0.009 0.071-0.011 0.063-0.011 0.126-0.021 0.188-0.032 0.024-0.004 0.049-0.009 0.073-0.013 0.076-0.015 0.151-0.030 0.227-0.045 0.029-0.004 0.057-0.011 0.086-0.017 0.057-0.013 0.113-0.026 0.169-0.038 0.026-0.004 0.053-0.011 0.079-0.017 0.072-0.017 0.142-0.034 0.213-0.053 0.034-0.009 0.066-0.017 0.1-0.026 0.050-0.013 0.099-0.028 0.149-0.041 0.045-0.013 0.092-0.026 0.137-0.040 0.051-0.013 0.1-0.028 0.15-0.045 0.037-0.011 0.075-0.023 0.112-0.034 0.042-0.015 0.086-0.028 0.128-0.043 0.058-0.019 0.116-0.038 0.174-0.060 0.037-0.013 0.073-0.026 0.11-0.038 0.041-0.015 0.082-0.030 0.122-0.045 0.035-0.013 0.069-0.026 0.102-0.041 0.067-0.026 0.135-0.051 0.203-0.079 0.027-0.013 0.056-0.023 0.083-0.036 0.044-0.017 0.089-0.036 0.132-0.055 0.018-0.009 0.036-0.015 0.054-0.023 0.082-0.036 0.165-0.072 0.246-0.111 0.023-0.011 0.045-0.021 0.069-0.032 0.145-0.070 0.288-0.143 0.43-0.217 0.019-0.009 0.038-0.019 0.057-0.030 0.095-0.051 0.189-0.102 0.283-0.156 0.001-0.002 0.002-0.002 0.003-0.002 0.055-0.46 0.083-0.927 0.083-1.4 0-4.307-2.319-8.067-5.763-10.079-3.446 2.013-5.764 5.773-5.764 10.079 0 0.473 0.030 0.94 0.083 1.4 0.004 0.002 0.010 0.004 0.014 0.006 0.090 0.051 0.18 0.102 0.272 0.151 0.019 0.011 0.039 0.021 0.058 0.032 0.141 0.075 0.284 0.145 0.428 0.213 0.023 0.013 0.046 0.023 0.070 0.034 0.079 0.036 0.159 0.072 0.24 0.109 0.020 0.009 0.040 0.017 0.060 0.026 0.043 0.019 0.087 0.038 0.131 0.055 0.029 0.013 0.057 0.023 0.085 0.036 0.065 0.028 0.133 0.053 0.199 0.079 0.035 0.013 0.069 0.028 0.103 0.041 0.041 0.015 0.082 0.030 0.123 0.045 0.036 0.013 0.073 0.026 0.11 0.038 0.057 0.021 0.115 0.041 0.173 0.060 0.042 0.015 0.085 0.028 0.129 0.043 0.037 0.013 0.074 0.023 0.112 0.034 0.050 0.017 0.099 0.032 0.15 0.047 0.045 0.013 0.091 0.026 0.136 0.038 0.050 0.013 0.099 0.028 0.15 0.041 0.033 0.009 0.066 0.017 0.1 0.026 0.070 0.019 0.141 0.036 0.212 0.053 0.026 0.006 0.053 0.013 0.079 0.017 0.057 0.013 0.113 0.026 0.169 0.038 0.029 0.006 0.058 0.013 0.087 0.017 0.075 0.015 0.151 0.030 0.226 0.045 0.024 0.004 0.049 0.009 0.073 0.013 0.062 0.011 0.126 0.021 0.189 0.032 0.023 0.002 0.046 0.006 0.070 0.011 0.080 0.011 0.159 0.023 0.24 0.034 0.022 0.002 0.045 0.004 0.068 0.009 0.070 0.009 0.139 0.015 0.209 0.023 0.018 0.002 0.035 0.004 0.053 0.006 0.083 0.009 0.166 0.015 0.25 0.021 0.021 0.002 0.042 0.004 0.063 0.004 0.078 0.006 0.156 0.011 0.234 0.015 0.010 0.002 0.020 0.002 0.030 0.002 0.087 0.004 0.173 0.009 0.26 0.011 0.021 0 0.041 0 0.062 0.002 0.088 0.002 0.176 0.002 0.265 0.002s0.176 0 0.264-0.002c0.021-0.002 0.042-0.002 0.063-0.002z"></path>
</symbol>
<symbol id="icon-contacts-menu" viewBox="0 0 53 32">
<path stroke-linejoin="round" stroke-linecap="round" stroke-miterlimit="4" stroke-width="10.6667" d="M48 5.333l-21.333 21.333-21.333-21.333"></path>
</symbol>
<symbol id="icon-e-reader" viewBox="0 0 24 32">
<path fill="#9ad7ff" style="fill: var(--color13, #9ad7ff)" d="M1.231 28.519v2.696c0.078 0.028 0.162 0.045 0.25 0.045h20.37v-2.741l-10.31-0.741-10.31 0.741z"></path>
<path fill="#c2e7ff" style="fill: var(--color14, #c2e7ff)" d="M21.852 25.778h-20.37c-0.088 0-0.172 0.016-0.25 0.045v2.696h20.62v-2.741z"></path>
<path fill="#4eb9ff" style="fill: var(--color15, #4eb9ff)" d="M3.482 28.518c0-1.346-0.971-2.465-2.25-2.696-0.285 0.103-0.491 0.377-0.491 0.696v4c0 0.32 0.206 0.593 0.491 0.696 1.279-0.231 2.25-1.35 2.25-2.696z"></path>
<path fill="#ffc0d5" style="fill: var(--color16, #ffc0d5)" d="M1.111 0c-0.614 0-1.111 0.497-1.111 1.111v25.407l5.185-0.741 2.963-12.889-2.963-12.889h-4.074z"></path>
<path fill="#ff755c" style="fill: var(--color2, #ff755c)" d="M21.852 1.482l-4.148-1.482h-12.519v25.778h15.926l2.222-6.371v-13.778l-1.482-4.148z"></path>
<path fill="#ffc0d5" style="fill: var(--color16, #ffc0d5)" d="M17.519 13.273h-6.519c-0.409 0-0.741-0.332-0.741-0.741s0.332-0.741 0.741-0.741h6.519c0.409 0 0.741 0.332 0.741 0.741s-0.332 0.741-0.741 0.741z"></path>
<path fill="#ffc0d5" style="fill: var(--color16, #ffc0d5)" d="M18.704 10.31h-8.889c-0.409 0-0.741-0.332-0.741-0.741s0.332-0.741 0.741-0.741h8.889c0.409 0 0.741 0.332 0.741 0.741s-0.332 0.741-0.741 0.741z"></path>
<path fill="#ffce47" style="fill: var(--color4, #ffce47)" d="M23.333 25.778l-5.63-0.741 5.63-5.63v6.37z"></path>
<path fill="#ffce47" style="fill: var(--color4, #ffce47)" d="M23.333 0v5.63l-5.63-5.63h5.63z"></path>
<path fill="#ff4181" style="fill: var(--color1, #ff4181)" d="M22.593 30.518h-21.111v-4h21.111c0.409 0 0.741-0.332 0.741-0.741s-0.332-0.741-0.741-0.741h-21.111c-0.817 0-1.482 0.665-1.482 1.482v4c0 0.817 0.665 1.481 1.482 1.481h21.111c0.409 0 0.741-0.332 0.741-0.741s-0.332-0.741-0.741-0.741z"></path>
</symbol>
<symbol id="icon-facebook" viewBox="0 0 19 32">
<path fill="none" stroke="#3d76b9" style="stroke: var(--color17, #3d76b9)" stroke-linejoin="round" stroke-linecap="round" stroke-miterlimit="4" stroke-width="2.9091" d="M17.455 1.455h-4.364c-4.017 0-7.273 3.256-7.273 7.273v4.364h-4.364v5.818h4.364v11.636h5.818v-11.636h4.364l1.455-5.818h-5.818v-4.364c0-0.803 0.651-1.455 1.455-1.455h4.364v-5.818z"></path>
</symbol>
<symbol id="icon-phone" viewBox="0 0 32 32">
<path stroke-linejoin="round" stroke-linecap="round" stroke-miterlimit="4" stroke-width="2.9091" d="M30.383 23.157v4.364c0.003 0.819-0.339 1.602-0.942 2.155s-1.413 0.827-2.229 0.754c-4.476-0.486-8.775-2.016-12.553-4.465-3.514-2.233-6.494-5.213-8.727-8.727-2.458-3.795-3.988-8.115-4.465-12.611-0.073-0.813 0.198-1.62 0.749-2.223s1.329-0.947 2.146-0.948h4.364c1.46-0.014 2.705 1.056 2.909 2.502 0.184 1.396 0.526 2.768 1.018 4.087 0.4 1.063 0.144 2.262-0.655 3.069l-1.847 1.847c2.071 3.641 5.086 6.657 8.727 8.727l1.847-1.847c0.808-0.799 2.006-1.054 3.069-0.655 1.32 0.492 2.691 0.834 4.087 1.018 1.463 0.206 2.538 1.476 2.502 2.953z"></path>
</symbol>
<symbol id="icon-phone-white" viewBox="0 0 32 32">
<path fill="none" stroke="#fff" style="stroke: var(--color18, #fff)" stroke-linejoin="round" stroke-linecap="round" stroke-miterlimit="4" stroke-width="2.56" d="M30.719 23.321v4.432c0.003 0.832-0.345 1.627-0.959 2.189s-1.438 0.84-2.268 0.765c-4.555-0.494-8.93-2.047-12.775-4.535-3.576-2.268-6.609-5.294-8.881-8.864-2.502-3.854-4.058-8.242-4.544-12.808-0.075-0.826 0.202-1.645 0.762-2.258s1.353-0.962 2.184-0.963h4.441c1.486-0.015 2.752 1.072 2.96 2.541 0.187 1.418 0.535 2.811 1.036 4.151 0.407 1.080 0.147 2.297-0.666 3.117l-1.88 1.876c2.107 3.698 5.176 6.761 8.881 8.864l1.88-1.876c0.822-0.811 2.041-1.071 3.123-0.665 1.343 0.5 2.738 0.847 4.16 1.034 1.488 0.21 2.583 1.499 2.546 2.999z"></path>
</symbol>
<symbol id="icon-road-map" viewBox="0 0 32 32">
<path fill="#85c250" style="fill: var(--color19, #85c250)" d="M10.666 3.033l2.275 14.483-2.275 14.483-10.666-3.033v-28.967l10.666 3.033z"></path>
<path fill="#85c250" style="fill: var(--color19, #85c250)" d="M32 3.033v28.967l-10.667-3.033-1.517-14.483 1.517-14.483 10.667 3.033z"></path>
<path fill="#c9d467" style="fill: var(--color20, #c9d467)" d="M21.333 0v28.967l-10.667 3.033v-28.967l10.667-3.033z"></path>
<path fill="#174461" style="fill: var(--color21, #174461)" d="M7.633 28.104c-0.069 0-0.138-0.009-0.208-0.029l-4.6-1.308c-0.403-0.115-0.636-0.534-0.522-0.937s0.534-0.637 0.937-0.522l4.6 1.308c0.403 0.115 0.637 0.534 0.522 0.937-0.095 0.333-0.399 0.551-0.729 0.551z"></path>
<path fill="#174461" style="fill: var(--color21, #174461)" d="M7.633 24.313c-0.069 0-0.138-0.009-0.208-0.029l-4.6-1.308c-0.403-0.115-0.636-0.534-0.522-0.937s0.534-0.637 0.937-0.522l4.6 1.308c0.403 0.115 0.637 0.534 0.522 0.937-0.095 0.333-0.399 0.551-0.729 0.551z"></path>
<path fill="#174461" style="fill: var(--color21, #174461)" d="M7.633 20.521c-0.069 0-0.138-0.009-0.208-0.029l-4.6-1.308c-0.403-0.115-0.636-0.534-0.522-0.937s0.534-0.637 0.937-0.522l4.6 1.308c0.403 0.115 0.637 0.534 0.522 0.937-0.095 0.334-0.399 0.551-0.729 0.551z"></path>
<path fill="#174461" style="fill: var(--color21, #174461)" d="M3.033 4.654v10.009l4.6 1.308v-10.009l-4.6-1.308z"></path>
<path fill="#fff" style="fill: var(--color18, #fff)" d="M13.699 6.721c-0.33 0-0.634-0.218-0.729-0.551-0.115-0.403 0.119-0.822 0.522-0.937l4.6-1.308c0.403-0.115 0.822 0.119 0.937 0.522s-0.119 0.822-0.522 0.937l-4.601 1.308c-0.069 0.020-0.139 0.029-0.208 0.029z"></path>
<path fill="#fff" style="fill: var(--color18, #fff)" d="M13.699 28.104c-0.33 0-0.634-0.218-0.729-0.551-0.115-0.403 0.119-0.822 0.522-0.937l4.6-1.308c0.403-0.115 0.822 0.119 0.937 0.522s-0.119 0.822-0.522 0.937l-4.601 1.308c-0.069 0.020-0.139 0.029-0.208 0.029z"></path>
<path fill="#fff" style="fill: var(--color18, #fff)" d="M13.699 24.313c-0.33 0-0.634-0.218-0.729-0.551-0.115-0.403 0.119-0.822 0.522-0.937l4.6-1.308c0.403-0.115 0.822 0.119 0.937 0.522s-0.119 0.822-0.522 0.937l-4.601 1.308c-0.069 0.020-0.139 0.029-0.208 0.029z"></path>
<path fill="#fff" style="fill: var(--color18, #fff)" d="M13.699 20.522c-0.33 0-0.634-0.218-0.729-0.551-0.115-0.403 0.119-0.822 0.522-0.937l4.6-1.308c0.403-0.114 0.822 0.119 0.937 0.522s-0.119 0.822-0.522 0.937l-4.601 1.308c-0.069 0.020-0.139 0.029-0.208 0.029z"></path>
<path fill="#fff" style="fill: var(--color18, #fff)" d="M13.699 16.73c-0.33 0-0.634-0.218-0.729-0.551-0.115-0.403 0.119-0.822 0.522-0.937l4.6-1.308c0.403-0.115 0.822 0.119 0.937 0.522s-0.119 0.822-0.522 0.937l-4.601 1.308c-0.069 0.020-0.139 0.029-0.208 0.029z"></path>
<path fill="#174461" style="fill: var(--color21, #174461)" d="M28.967 6.721c-0.069 0-0.138-0.009-0.208-0.029l-4.601-1.308c-0.403-0.115-0.637-0.534-0.522-0.937s0.534-0.636 0.937-0.522l4.6 1.308c0.403 0.115 0.637 0.534 0.522 0.937-0.095 0.334-0.399 0.551-0.729 0.551z"></path>
<path fill="#174461" style="fill: var(--color21, #174461)" d="M28.967 10.512c-0.069 0-0.138-0.009-0.208-0.029l-4.601-1.308c-0.403-0.115-0.637-0.534-0.522-0.937s0.534-0.636 0.937-0.522l4.6 1.308c0.403 0.115 0.637 0.534 0.522 0.937-0.095 0.333-0.399 0.551-0.729 0.551z"></path>
<path fill="#174461" style="fill: var(--color21, #174461)" d="M28.967 14.304c-0.069 0-0.138-0.009-0.208-0.029l-4.601-1.308c-0.403-0.115-0.637-0.534-0.522-0.937s0.534-0.636 0.937-0.522l4.6 1.308c0.403 0.115 0.637 0.534 0.522 0.937-0.095 0.334-0.399 0.551-0.729 0.551z"></path>
<path fill="#174461" style="fill: var(--color21, #174461)" d="M24.366 16.028v10.009l4.601 1.308v-10.010l-4.601-1.308z"></path>
</symbol>
<symbol id="icon-search" viewBox="0 0 32 32">
<path stroke-linejoin="round" stroke-linecap="round" stroke-miterlimit="4" stroke-width="3.2" d="M13.6 25.6c6.627 0 12-5.373 12-12s-5.373-12-12-12c-6.627 0-12 5.373-12 12s5.373 12 12 12z"></path>
<path stroke-linejoin="round" stroke-linecap="round" stroke-miterlimit="4" stroke-width="3.2" d="M30.4 30.4l-8.32-8.32"></path>
</symbol>
<symbol id="icon-shopping-cart" viewBox="0 0 32 32">
<path fill="none" stroke="#1ab0ce" style="stroke: var(--color22, #1ab0ce)" stroke-linejoin="round" stroke-linecap="round" stroke-miterlimit="4" stroke-width="2.6667" d="M10.667 30.667c1.473 0 2.667-1.194 2.667-2.667s-1.194-2.667-2.667-2.667c-1.473 0-2.667 1.194-2.667 2.667s1.194 2.667 2.667 2.667z"></path>
<path fill="none" stroke="#1ab0ce" style="stroke: var(--color22, #1ab0ce)" stroke-linejoin="round" stroke-linecap="round" stroke-miterlimit="4" stroke-width="2.6667" d="M26.667 30.667c1.473 0 2.667-1.194 2.667-2.667s-1.194-2.667-2.667-2.667c-1.473 0-2.667 1.194-2.667 2.667s1.194 2.667 2.667 2.667z"></path>
<path fill="none" stroke="#1ab0ce" style="stroke: var(--color22, #1ab0ce)" stroke-linejoin="round" stroke-linecap="round" stroke-miterlimit="4" stroke-width="2.6667" d="M7.56 8h23.107l-2.24 11.187c-0.252 1.267-1.375 2.171-2.667 2.147h-14.093c-1.347 0.011-2.492-0.984-2.667-2.32l-2.027-15.36c-0.174-1.326-1.303-2.318-2.64-2.32h-3"></path>
</symbol>
<symbol id="icon-user" viewBox="0 0 30 32">
<path fill="none" stroke="#1ab0ce" style="stroke: var(--color22, #1ab0ce)" stroke-linejoin="round" stroke-linecap="round" stroke-miterlimit="4" stroke-width="2.1333" d="M26.785 29.867v-3.082c0-3.404-2.759-6.163-6.163-6.163h-12.326c-3.404 0-6.163 2.759-6.163 6.163v3.082"></path>
<path fill="none" stroke="#1ab0ce" style="stroke: var(--color22, #1ab0ce)" stroke-linejoin="round" stroke-linecap="round" stroke-miterlimit="4" stroke-width="2.1333" d="M14.459 14.459c3.404 0 6.163-2.759 6.163-6.163s-2.759-6.163-6.163-6.163c-3.404 0-6.163 2.759-6.163 6.163s2.759 6.163 6.163 6.163z"></path>
</symbol>
</defs>
</svg>
